<svg width="100" height="100" viewBox="0 0 100 100" fill="none" xmlns="http://www.w3.org/2000/svg">
<rect width="100" height="100" rx="18" fill="#111111"/>
<path d="M45.8984 79C43.2161 79 41.1719 78.6615 39.7656 77.9844C38.3854 77.3073 37.4479 76.2005 36.9531 74.6641C36.4844 73.1276 36.25 71.0833 36.25 68.5312V29.2344C36.25 28.4792 36.3802 27.9062 36.6406 27.5156C37.8125 25.7969 39.4531 23.987 41.5625 22.0859C41.9531 21.7734 42.2917 21.6172 42.5781 21.6172C42.8906 21.6172 43.2161 21.7734 43.5547 22.0859C44.7005 23.0755 45.6641 24.026 46.4453 24.9375C47.2266 25.8229 47.9036 26.6823 48.4766 27.5156C48.737 27.9323 48.8672 28.5052 48.8672 29.2344V63.8828C48.8672 65.6276 49.1797 66.8776 49.8047 67.6328C50.4297 68.388 51.6016 68.7656 53.3203 68.7656L65.3125 68.7266C65.9375 68.7266 66.4062 68.8307 66.7188 69.0391C67.3958 69.5078 68.099 70.0677 68.8281 70.7188C69.5573 71.3698 70.3255 72.151 71.1328 73.0625C71.3932 73.401 71.5234 73.6745 71.5234 73.8828C71.5234 74.1172 71.3932 74.3776 71.1328 74.6641C70.3255 75.5755 69.5573 76.3568 68.8281 77.0078C68.099 77.6589 67.3958 78.2188 66.7188 78.6875C66.3542 78.8958 65.8854 79 65.3125 79H45.8984Z" fill="white"/>
</svg>
